<mxfile host="65bd71144e">
    <diagram id="OegJ9Nn6N-6bbSoRedIr" name="ページ1">
        <mxGraphModel dx="733" dy="511" grid="1" gridSize="10" guides="1" tooltips="1" connect="1" arrows="1" fold="1" page="1" pageScale="1" pageWidth="827" pageHeight="1169" math="1" shadow="0">
            <root>
                <mxCell id="0"/>
                <mxCell id="1" parent="0"/>
                <mxCell id="249" value="" style="endArrow=none;html=1;strokeWidth=1;startArrow=none;exitX=0.5;exitY=1;exitDx=0;exitDy=0;dashed=1;" parent="1" edge="1">
                    <mxGeometry width="100" relative="1" as="geometry">
                        <mxPoint x="319.5" y="135" as="sourcePoint"/>
                        <mxPoint x="320" y="345" as="targetPoint"/>
                    </mxGeometry>
                </mxCell>
                <mxCell id="246" value="" style="endArrow=none;html=1;strokeWidth=1;startArrow=none;exitX=0.5;exitY=1;exitDx=0;exitDy=0;dashed=1;" parent="1" edge="1">
                    <mxGeometry width="100" relative="1" as="geometry">
                        <mxPoint x="119.5" y="140" as="sourcePoint"/>
                        <mxPoint x="120" y="350" as="targetPoint"/>
                    </mxGeometry>
                </mxCell>
                <mxCell id="121" value="" style="endArrow=none;html=1;strokeWidth=1;startArrow=none;exitX=0.5;exitY=1;exitDx=0;exitDy=0;entryX=0;entryY=0.5;entryDx=0;entryDy=0;entryPerimeter=0;" parent="1" source="230" target="235" edge="1">
                    <mxGeometry width="100" relative="1" as="geometry">
                        <mxPoint x="262.25" y="266.9975925925926" as="sourcePoint"/>
                        <mxPoint x="295.75" y="267.28" as="targetPoint"/>
                    </mxGeometry>
                </mxCell>
                <mxCell id="139" value="" style="endArrow=none;html=1;strokeWidth=1;exitX=0;exitY=1;exitDx=0;exitDy=0;exitPerimeter=0;entryX=0;entryY=1;entryDx=0;entryDy=0;startArrow=none;" parent="1" source="247" edge="1">
                    <mxGeometry width="100" relative="1" as="geometry">
                        <mxPoint x="100" y="160" as="sourcePoint"/>
                        <mxPoint x="116.46446609406723" y="223.53553390593277" as="targetPoint"/>
                    </mxGeometry>
                </mxCell>
                <mxCell id="155" value="" style="ellipse;whiteSpace=wrap;html=1;aspect=fixed;fillColor=#2c2626;" parent="1" vertex="1">
                    <mxGeometry x="74.5" y="257" width="10" height="10" as="geometry"/>
                </mxCell>
                <mxCell id="181" value="" style="pointerEvents=1;verticalLabelPosition=bottom;shadow=0;dashed=0;align=center;html=1;verticalAlign=top;shape=mxgraph.electrical.inductors.inductor_3;strokeWidth=1;fillColor=#2c2626;rotation=90;" parent="1" vertex="1">
                    <mxGeometry x="13.5" y="329" width="60" height="8" as="geometry"/>
                </mxCell>
                <mxCell id="207" value="`C`" style="text;html=1;align=center;verticalAlign=middle;resizable=0;points=[];autosize=1;strokeColor=none;fillColor=none;" parent="1" vertex="1">
                    <mxGeometry x="165" y="329" width="40" height="30" as="geometry"/>
                </mxCell>
                <mxCell id="208" value="" style="pointerEvents=1;verticalLabelPosition=bottom;shadow=0;dashed=0;align=center;html=1;verticalAlign=top;shape=mxgraph.electrical.signal_sources.protective_earth;" parent="1" vertex="1">
                    <mxGeometry x="27" y="360" width="25" height="20" as="geometry"/>
                </mxCell>
                <mxCell id="215" value="" style="endArrow=none;html=1;strokeWidth=1;" parent="1" edge="1">
                    <mxGeometry width="100" relative="1" as="geometry">
                        <mxPoint x="40" y="220" as="sourcePoint"/>
                        <mxPoint x="80" y="262" as="targetPoint"/>
                    </mxGeometry>
                </mxCell>
                <mxCell id="216" value="" style="endArrow=none;html=1;strokeWidth=1;" parent="1" edge="1">
                    <mxGeometry width="100" relative="1" as="geometry">
                        <mxPoint x="40" y="160" as="sourcePoint"/>
                        <mxPoint x="40" y="220" as="targetPoint"/>
                    </mxGeometry>
                </mxCell>
                <mxCell id="217" value="" style="endArrow=none;html=1;strokeWidth=1;startArrow=none;" parent="1" source="223" edge="1">
                    <mxGeometry width="100" relative="1" as="geometry">
                        <mxPoint x="320" y="160.5" as="sourcePoint"/>
                        <mxPoint x="40" y="160.5" as="targetPoint"/>
                    </mxGeometry>
                </mxCell>
                <mxCell id="218" value="" style="endArrow=none;html=1;strokeWidth=1;" parent="1" edge="1">
                    <mxGeometry width="100" relative="1" as="geometry">
                        <mxPoint x="80" y="260" as="sourcePoint"/>
                        <mxPoint x="80" y="320" as="targetPoint"/>
                    </mxGeometry>
                </mxCell>
                <mxCell id="219" value="" style="endArrow=none;html=1;strokeWidth=1;startArrow=none;" parent="1" source="228" edge="1">
                    <mxGeometry width="100" relative="1" as="geometry">
                        <mxPoint x="320" y="320" as="sourcePoint"/>
                        <mxPoint x="80" y="320" as="targetPoint"/>
                    </mxGeometry>
                </mxCell>
                <mxCell id="220" value="" style="ellipse;whiteSpace=wrap;html=1;aspect=fixed;" parent="1" vertex="1">
                    <mxGeometry x="115" y="315" width="10" height="10" as="geometry"/>
                </mxCell>
                <mxCell id="221" value="" style="endArrow=none;html=1;strokeWidth=1;startArrow=none;" parent="1" source="230" edge="1">
                    <mxGeometry width="100" relative="1" as="geometry">
                        <mxPoint x="320" y="220" as="sourcePoint"/>
                        <mxPoint x="125" y="219.5" as="targetPoint"/>
                    </mxGeometry>
                </mxCell>
                <mxCell id="226" value="" style="endArrow=none;html=1;strokeWidth=1;startArrow=none;" parent="1" source="232" target="223" edge="1">
                    <mxGeometry width="100" relative="1" as="geometry">
                        <mxPoint x="320" y="160.5" as="sourcePoint"/>
                        <mxPoint x="40" y="160.5" as="targetPoint"/>
                    </mxGeometry>
                </mxCell>
                <mxCell id="223" value="" style="ellipse;whiteSpace=wrap;html=1;aspect=fixed;" parent="1" vertex="1">
                    <mxGeometry x="115" y="156" width="10" height="10" as="geometry"/>
                </mxCell>
                <mxCell id="229" value="" style="endArrow=none;html=1;strokeWidth=1;startArrow=none;" parent="1" source="244" target="228" edge="1">
                    <mxGeometry width="100" relative="1" as="geometry">
                        <mxPoint x="320" y="320" as="sourcePoint"/>
                        <mxPoint x="80" y="320" as="targetPoint"/>
                    </mxGeometry>
                </mxCell>
                <mxCell id="228" value="" style="ellipse;whiteSpace=wrap;html=1;aspect=fixed;fillColor=#2c2626;" parent="1" vertex="1">
                    <mxGeometry x="195" y="315" width="10" height="10" as="geometry"/>
                </mxCell>
                <mxCell id="231" value="" style="endArrow=none;html=1;strokeWidth=1;" parent="1" target="230" edge="1">
                    <mxGeometry width="100" relative="1" as="geometry">
                        <mxPoint x="320" y="220" as="sourcePoint"/>
                        <mxPoint x="125" y="219.5" as="targetPoint"/>
                    </mxGeometry>
                </mxCell>
                <mxCell id="230" value="" style="ellipse;whiteSpace=wrap;html=1;aspect=fixed;fillColor=#2c2626;" parent="1" vertex="1">
                    <mxGeometry x="234" y="215" width="10" height="10" as="geometry"/>
                </mxCell>
                <mxCell id="233" value="" style="endArrow=none;html=1;strokeWidth=1;startArrow=none;" parent="1" source="241" target="232" edge="1">
                    <mxGeometry width="100" relative="1" as="geometry">
                        <mxPoint x="320" y="160.5" as="sourcePoint"/>
                        <mxPoint x="125" y="161" as="targetPoint"/>
                    </mxGeometry>
                </mxCell>
                <mxCell id="232" value="" style="ellipse;whiteSpace=wrap;html=1;aspect=fixed;fillColor=#2c2626;" parent="1" vertex="1">
                    <mxGeometry x="274" y="156" width="10" height="10" as="geometry"/>
                </mxCell>
                <mxCell id="234" value="" style="pointerEvents=1;verticalLabelPosition=bottom;shadow=0;dashed=0;align=center;html=1;verticalAlign=top;shape=mxgraph.electrical.capacitors.capacitor_1;rotation=90;" parent="1" vertex="1">
                    <mxGeometry x="170" y="340" width="60" height="30" as="geometry"/>
                </mxCell>
                <mxCell id="235" value="" style="pointerEvents=1;verticalLabelPosition=bottom;shadow=0;dashed=0;align=center;html=1;verticalAlign=top;shape=mxgraph.electrical.capacitors.capacitor_1;rotation=90;" parent="1" vertex="1">
                    <mxGeometry x="209" y="340" width="60" height="30" as="geometry"/>
                </mxCell>
                <mxCell id="236" value="" style="pointerEvents=1;verticalLabelPosition=bottom;shadow=0;dashed=0;align=center;html=1;verticalAlign=top;shape=mxgraph.electrical.capacitors.capacitor_1;rotation=90;" parent="1" vertex="1">
                    <mxGeometry x="249" y="340" width="60" height="30" as="geometry"/>
                </mxCell>
                <mxCell id="237" value="" style="pointerEvents=1;verticalLabelPosition=bottom;shadow=0;dashed=0;align=center;html=1;verticalAlign=top;shape=mxgraph.electrical.signal_sources.protective_earth;" parent="1" vertex="1">
                    <mxGeometry x="187" y="384" width="25" height="20" as="geometry"/>
                </mxCell>
                <mxCell id="238" value="" style="pointerEvents=1;verticalLabelPosition=bottom;shadow=0;dashed=0;align=center;html=1;verticalAlign=top;shape=mxgraph.electrical.signal_sources.protective_earth;" parent="1" vertex="1">
                    <mxGeometry x="226.5" y="385" width="25" height="20" as="geometry"/>
                </mxCell>
                <mxCell id="239" value="" style="pointerEvents=1;verticalLabelPosition=bottom;shadow=0;dashed=0;align=center;html=1;verticalAlign=top;shape=mxgraph.electrical.signal_sources.protective_earth;" parent="1" vertex="1">
                    <mxGeometry x="266.5" y="385" width="25" height="20" as="geometry"/>
                </mxCell>
                <mxCell id="240" value="" style="endArrow=none;html=1;strokeWidth=1;startArrow=none;exitX=0.5;exitY=1;exitDx=0;exitDy=0;entryX=0;entryY=0.5;entryDx=0;entryDy=0;entryPerimeter=0;" parent="1" target="236" edge="1">
                    <mxGeometry width="100" relative="1" as="geometry">
                        <mxPoint x="278.5" y="166" as="sourcePoint"/>
                        <mxPoint x="278.5" y="266" as="targetPoint"/>
                    </mxGeometry>
                </mxCell>
                <mxCell id="242" value="" style="endArrow=none;html=1;strokeWidth=1;" parent="1" target="241" edge="1">
                    <mxGeometry width="100" relative="1" as="geometry">
                        <mxPoint x="320" y="160.5" as="sourcePoint"/>
                        <mxPoint x="284" y="161" as="targetPoint"/>
                    </mxGeometry>
                </mxCell>
                <mxCell id="241" value="" style="ellipse;whiteSpace=wrap;html=1;aspect=fixed;" parent="1" vertex="1">
                    <mxGeometry x="315" y="156" width="10" height="10" as="geometry"/>
                </mxCell>
                <mxCell id="243" value="" style="ellipse;whiteSpace=wrap;html=1;aspect=fixed;" parent="1" vertex="1">
                    <mxGeometry x="315" y="215" width="10" height="10" as="geometry"/>
                </mxCell>
                <mxCell id="245" value="" style="endArrow=none;html=1;strokeWidth=1;" parent="1" target="244" edge="1">
                    <mxGeometry width="100" relative="1" as="geometry">
                        <mxPoint x="320" y="320" as="sourcePoint"/>
                        <mxPoint x="205" y="320" as="targetPoint"/>
                    </mxGeometry>
                </mxCell>
                <mxCell id="244" value="" style="ellipse;whiteSpace=wrap;html=1;aspect=fixed;" parent="1" vertex="1">
                    <mxGeometry x="315" y="315" width="10" height="10" as="geometry"/>
                </mxCell>
                <mxCell id="248" value="" style="endArrow=none;html=1;strokeWidth=1;exitX=0;exitY=1;exitDx=0;exitDy=0;exitPerimeter=0;entryX=0;entryY=1;entryDx=0;entryDy=0;" parent="1" source="181" target="247" edge="1">
                    <mxGeometry width="100" relative="1" as="geometry">
                        <mxPoint x="39.5" y="303" as="sourcePoint"/>
                        <mxPoint x="116.46446609406723" y="223.53553390593277" as="targetPoint"/>
                    </mxGeometry>
                </mxCell>
                <mxCell id="247" value="" style="ellipse;whiteSpace=wrap;html=1;aspect=fixed;" parent="1" vertex="1">
                    <mxGeometry x="115" y="215" width="10" height="10" as="geometry"/>
                </mxCell>
                <mxCell id="250" value="A点" style="text;html=1;align=center;verticalAlign=middle;resizable=0;points=[];autosize=1;strokeColor=none;fillColor=none;" parent="1" vertex="1">
                    <mxGeometry x="100" y="110" width="40" height="30" as="geometry"/>
                </mxCell>
                <mxCell id="251" value="B点" style="text;html=1;align=center;verticalAlign=middle;resizable=0;points=[];autosize=1;strokeColor=none;fillColor=none;" parent="1" vertex="1">
                    <mxGeometry x="300" y="110" width="40" height="30" as="geometry"/>
                </mxCell>
                <mxCell id="252" value="a相" style="text;html=1;align=center;verticalAlign=middle;resizable=0;points=[];autosize=1;strokeColor=none;fillColor=none;" parent="1" vertex="1">
                    <mxGeometry x="325" y="305" width="40" height="30" as="geometry"/>
                </mxCell>
                <mxCell id="253" value="b相" style="text;html=1;align=center;verticalAlign=middle;resizable=0;points=[];autosize=1;strokeColor=none;fillColor=none;" parent="1" vertex="1">
                    <mxGeometry x="322" y="205" width="40" height="30" as="geometry"/>
                </mxCell>
                <mxCell id="254" value="c相" style="text;html=1;align=center;verticalAlign=middle;resizable=0;points=[];autosize=1;strokeColor=none;fillColor=none;" parent="1" vertex="1">
                    <mxGeometry x="322" y="146" width="40" height="30" as="geometry"/>
                </mxCell>
                <mxCell id="255" value="`C`" style="text;html=1;align=center;verticalAlign=middle;resizable=0;points=[];autosize=1;strokeColor=none;fillColor=none;" parent="1" vertex="1">
                    <mxGeometry x="204" y="329" width="40" height="30" as="geometry"/>
                </mxCell>
                <mxCell id="256" value="`C`" style="text;html=1;align=center;verticalAlign=middle;resizable=0;points=[];autosize=1;strokeColor=none;fillColor=none;" parent="1" vertex="1">
                    <mxGeometry x="244" y="329" width="40" height="30" as="geometry"/>
                </mxCell>
                <mxCell id="258" value="`L`" style="text;html=1;align=center;verticalAlign=middle;resizable=0;points=[];autosize=1;strokeColor=none;fillColor=none;" parent="1" vertex="1">
                    <mxGeometry x="34.5" y="318" width="40" height="30" as="geometry"/>
                </mxCell>
                <mxCell id="259" value="変電所" style="text;html=1;align=center;verticalAlign=middle;resizable=0;points=[];autosize=1;strokeColor=none;fillColor=none;" parent="1" vertex="1">
                    <mxGeometry x="34.5" y="126" width="60" height="30" as="geometry"/>
                </mxCell>
                <mxCell id="260" value="66kV系統&lt;br&gt;送電線" style="text;html=1;align=center;verticalAlign=middle;resizable=0;points=[];autosize=1;strokeColor=none;fillColor=none;" parent="1" vertex="1">
                    <mxGeometry x="164.5" y="111" width="70" height="40" as="geometry"/>
                </mxCell>
            </root>
        </mxGraphModel>
    </diagram>
</mxfile>